# xmcd
#
# Track frame offsets: 
#        150
#        13492
#        28136
#        41995
#        56156
#        69383
#        81871
#        94931
#        109479
#        123332
#        136016
#        148735
#        164083
#        177181
#        192351
#        205851
#        219683
#        234133
#        248414
#        262155
#        275180
#        287761
#
# Disc length: 4017 seconds
#
# Revision: 2
# Processed by: cddbd v1.5.2PL0 Copyright (c) Steve Scherf et al.
# Submitted via: ExactAudioCopyFreeDBPlugin 1.0
#
DISCID=5e0faf16
DTITLE=Various Artist - Blues Harmonica (1926 - 1940)
DYEAR=1900
DGENRE=Blues
TTITLE0=De Ford Bailey - Pan American Blues
TTITLE1=De Ford Bailey - Up Country Blues
TTITLE2=De Ford Bailey - Alcoholic Blues
TTITLE3=Palmer McAbee - Railroad Peice
TTITLE4=Bullet Williams - Escaped Convict
TTITLE5=Bullet Williams - Touch Me Lightly Mama
TTITLE6=Freeman Stowers - Medley of Blues- a) All Out And Down, b) Old
TTITLE6=Time Blues, c) Hog in the mountain
TTITLE7=Robert Cooksey - Need More Blues
TTITLE8=Jaybird Coleman - Man Trouble Blues
TTITLE9=Will Sahde - Memphis Jug Band - Jug Band Waltz
TTITLE10=Jed Davenport - Cow Cow Blues
TTITLE11=Noah Lewis - Chicken Special
TTITLE12=Noah Lewis - Devil in the Woodpile
TTITLE13=Blues Birdhead - Mean Low Blues
TTITLE14=Jed Davenport - Beal Street Brakedown
TTITLE15=Jaybird Coleman - Coffee Grinder Blues
TTITLE16=Alfred Lewsis - Friday Moan Blues
TTITLE17=Hammie Nixon - Sleepy John Esters - Drop Down Mama
TTITLE18=Jazz Gillum -  Sarah Jane
TTITLE19=Sonny Terry - Harmonica And Washboard Blues
TTITLE20=Sonny Terry - Harmonica Stomp
TTITLE21=Sonny Boy Williamson - Good morning, Schoolgirl
EXTD=ID3G: 0
EXTT0=
EXTT1=
EXTT2=
EXTT3=
EXTT4=
EXTT5=
EXTT6=
EXTT7=
EXTT8=
EXTT9=
EXTT10=
EXTT11=
EXTT12=
EXTT13=
EXTT14=
EXTT15=
EXTT16=
EXTT17=
EXTT18=
EXTT19=
EXTT20=
EXTT21=
PLAYORDER=
